:FULLY-SPECIFIED
:DEGREES
102
root -17.775800704956055 17.12580108642578 20.367300033569336 90.00000933466734 -0.0 -0.0
lhipjoint -5.528973971617621e-07 -1.7075472925031877e-06 5.635377011264426e-07
lfemur 18.556903389967207 23.156263984594585 3.886346048112344
ltibia 16.980432550278444 -7.195884328364404 5.683866141891641
lfoot -15.406369352272106 6.768466031143815 4.827369384595327
ltoes -5.843301967026779 2.384410501514989 2.022029692458085
rhipjoint -1.4590168159163821e-06 -1.2806604693773908e-06 -1.1362305144035093e-07
rfemur -18.287932247999397 -22.954165517243077 11.198111365935183
rtibia 4.368455377564517 1.6617917485315665 -1.6385554449751831
rfoot -4.4482396710330825 11.684459254654174 -1.9774368814709524
rtoes -17.31314131003352 -7.691937915893981 -5.303087791418484
lowerback 6.050928618737765 4.204827096939461 -2.1605790125547357
upperback 0.6701844579422922 -1.743731820456917 -3.1180464563513475
thorax -2.446213041333026 -4.421999791789186 -1.5106641014698083
lowerneck -17.49145705869504 8.747889430446184 -3.630998572217771
upperneck 22.891530975006766 -4.577568022306805 -3.8812238331216578
head 10.376513887089875 -2.5466065768484585 -2.0495788335885083
lclavicle -1.1905593500282093e-07 5.336085289072462e-08 1.7916324053945998e-07
lhumerus -82.69475318712352 -22.590758472263378 -8.543564321425253
lradius -1.0446696222332858e-06 -4.828693690737958e-07 31.23740913128434
lwrist -6.217397653533539e-07 -8.447192913557311 8.45269555477609e-07
lhand -23.38669749171789 -7.866967489791081 -17.562444922286275
lfingers -9.414104972780149e-07 5.958838404591767e-07 7.125023250159637
lthumb -45.34610742805114 -34.08113107146247 22.216288228375554
rclavicle -2.343282567121354e-08 -1.5207843073856516e-06 -8.563986979746117e-08
rhumerus -71.44166135969067 28.829753788476506 34.53676616080485
rradius 8.149399895906726e-07 1.3741812956756444e-06 -26.133791038160556
rwrist -5.949612251571778e-07 12.41769628375432 5.05015952987388e-07
rhand 14.76425131556816 -2.8015694277153953 10.506752787957323
rfingers -4.6239122781278693e-07 1.3831930793101032e-07 -7.125021115725521
rthumb -5.419428537985427 16.186943861188674 -12.860022749498931
103
root -18.290199279785156 17.084699630737305 20.78900146484375 90.00000933466734 -0.0 -0.0
lhipjoint -5.528973971617621e-07 -1.7075472925031877e-06 5.635377011264426e-07
lfemur 19.56095485833742 24.006359573978127 3.058446865984051
ltibia 18.56205506014869 -7.957120864193373 6.109705384753487
lfoot -14.368465758828016 5.89808136483075 4.545817034176354
ltoes -11.980536856116824 5.131051974811965 3.8998604311588605
rhipjoint -1.4590168159163821e-06 -1.2806604693773908e-06 -1.1362305144035093e-07
rfemur -19.228143645744797 -22.263633392154787 12.274325490433876
rtibia 7.809996028150359 3.0685937523263394 -2.8491942023637784
rfoot -5.541535244872329 7.8385129217088085 -2.117523634461091
rtoes -15.830010127994855 -6.965125533481877 -4.935371750846153
lowerback 4.883656973545402 5.2322796471797846 -2.204618151332274
upperback 0.6801800129057828 -1.38402460357325 -3.191122009951079
thorax -1.7370513618401155 -4.572323717684704 -1.5609134830284748
lowerneck -17.04263508304975 8.598909344269865 -3.5838933188331317
upperneck 22.380098362787262 -4.5034783990587375 -3.860695272684361
head 10.1040269052468 -2.497035625173445 -2.0334623619116283
lclavicle -1.1905593500282093e-07 5.336085289072462e-08 1.7916324053945998e-07
lhumerus -82.68356533726303 -22.25145857995924 -9.114264192620253
lradius -1.262111270919596e-06 -1.3013589085778566e-06 30.817325176571877
lwrist -6.613558384659152e-07 -8.953323591433596 8.969165219504615e-07
lhand -23.208880346865776 -7.69614275110177 -17.344823142498623
lfingers -9.414104972780149e-07 5.958838404591767e-07 7.125023250159637
lthumb -45.11166459988504 -33.954608647277155 22.338034642783736
rclavicle -2.343282567121354e-08 -1.5207843073856516e-06 -8.563986979746117e-08
rhumerus -71.58132506783909 28.33237941311618 35.33283495385359
rradius 1.7578679231461042e-08 1.174244605734111e-06 -25.14301233489497
rwrist -5.560951013940682e-07 11.565202444198459 4.770332802332472e-07
rhand 13.372226319321005 -3.0506105045719307 12.618593491585552
rfingers -4.6239122781278693e-07 1.3831930793101032e-07 -7.125021115725521
rthumb -7.261746134983544 16.123643375508287 -11.61230940513039
104
root -18.883499145507812 17.194400787353516 21.202800750732422 90.00000933466734 -0.0 -0.0
lhipjoint -5.528973971617621e-07 -1.7075472925031877e-06 5.635377011264426e-07
lfemur 19.126375534658898 22.62687138995253 1.0878502055234547
ltibia 20.646237766506598 -8.97944564991431 6.64035814929741
lfoot -10.414205432250943 6.036904105937613 3.4912283558069803
ltoes -19.844071322076328 8.955458025549225 5.888810236806104
rhipjoint -1.4590168159163821e-06 -1.2806604693773908e-06 -1.1362305144035093e-07
rfemur -17.489495086855957 -22.820027432133198 12.87861110932512
rtibia 9.024973983374322 3.584815821257907 -3.2584981975752583
rfoot -3.2180242041010554 6.507861017135625 -1.2681895044482996
rtoes -13.124458645857853 -5.667759702055104 -4.219527371580621
lowerback 4.633856465030526 5.387619920133854 -2.617616638554496
upperback -0.2341583614593422 -2.192923800256154 -3.734494721163682
thorax -2.463168345617348 -5.5584980196760565 -1.7808107830268005
lowerneck -15.736267489183723 8.950316600651497 -3.5145922985234783
upperneck 23.12682586927183 -4.014760434697754 -3.7214353994706175
head 10.128467883418045 -2.417567654840816 -2.096411733179993
lclavicle -1.1905593500282093e-07 5.336085289072462e-08 1.7916324053945998e-07
lhumerus -82.78362077841456 -23.755329631412646 -11.362899071171851
lradius -8.279620964563325e-07 -3.17272858316987e-06 30.04531913996909
lwrist -6.357883008258157e-07 -8.627141077430467 8.636135191029184e-07
lhand -22.899366909532066 -7.031654564205563 -16.162223699035106
lfingers -9.414104972780149e-07 5.958838404591767e-07 7.125023250159637
lthumb -44.60727562024711 -33.566192864651455 23.334651450242394
rclavicle -2.343282567121354e-08 -1.5207843073856516e-06 -8.563986979746117e-08
rhumerus -69.76863384325273 30.0573197823408 34.82714482317877
rradius -1.730632547158811e-07 2.02802608887244e-06 -25.14680138233703
rwrist -5.276724943163874e-07 10.944598649606405 4.5607540954852394e-07
rhand 11.65682687059324 -2.8114174932814957 13.373759696789671
rfingers -4.6239122781278693e-07 1.3831930793101032e-07 -7.125021115725521
rthumb -8.9767374799084 16.835108322855373 -11.517533700207293
105
root -19.428699493408203 17.303600311279297 21.661699295043945 90.00000933466734 -0.0 -0.0
lhipjoint -5.528973971617621e-07 -1.7075472925031877e-06 5.635377011264426e-07
lfemur 17.474439642377956 21.003531792179135 -0.7215310453580978
ltibia 25.438803922186125 -11.40333037596374 7.723277385126938
lfoot -4.663176759590098 5.839785700264692 1.723911145094069
ltoes -25.215439660853782 11.719327370367088 6.94969912435458
rhipjoint -1.4590168159163821e-06 -1.2806604693773908e-06 -1.1362305144035093e-07
rfemur -13.55847447892985 -24.03713299128362 12.81359026974754
rtibia 8.399196320485984 3.31769011102647 -3.0488999690716656
rfoot 0.5055901857973547 4.526159749745057 0.12542597872033082
rtoes -9.366526984330918 -3.9328647590020083 -3.132814819440796
lowerback 4.721153966586105 3.142039416801721 -2.341837505531476
upperback -0.04674444397265864 -2.662300803321777 -3.2363214271138734
thorax -2.463888717131373 -4.742668635584822 -1.5641566489454672
lowerneck -16.1989410884658 8.646542229767888 -3.7366355585816575
upperneck 24.08964007052809 -3.88437212344221 -4.076635972162546
head 10.57405491071769 -2.27403699240511 -2.2607571836679012
lclavicle -1.1905593500282093e-07 5.336085289072462e-08 1.7916324053945998e-07
lhumerus -83.04266936306563 -23.82471240054893 -12.63614622397884
lradius 5.557564868204608e-07 -1.5458385289446002e-06 28.584409978395062
lwrist -7.1542791427229e-07 -9.637544621728793 9.67000375134197e-07
lhand -22.62810082400313 -6.980577555818561 -16.25461054529599
lfingers -9.414104972780149e-07 5.958838404591767e-07 7.125023250159637
lthumb -44.302164239833466 -33.47457953731407 23.104359669544365
rclavicle -2.343282567121354e-08 -1.5207843073856516e-06 -8.563986979746117e-08
rhumerus -68.57781085202852 29.320540446382356 37.14113095170905
rradius -1.817622117140898e-07 2.26386411672521e-07 -24.394500441489733
rwrist -5.893158678197674e-07 12.293601138045299 5.01000566313134e-07
rhand 11.592665781077432 -2.780026157299529 13.302435446381814
rfingers -4.6239122781278693e-07 1.3831930793101032e-07 -7.125021115725521
rthumb -9.014092638252846 16.899122563304026 -11.593565658500582
